<svg xmlns="http://www.w3.org/2000/svg" xml:space="preserve" width="96" height="96" id="heart">
  <switch>
    <g>
      <path d="M87.598 14.463c-9.373-9.373-24.568-9.373-33.939 0L48 20.12l-5.658-5.655c-9.373-9.373-24.568-9.373-33.939 0-9.373 9.372-9.373 24.567 0 33.94l5.656 5.654L48 88l33.941-33.941 5.656-5.654c9.374-9.373 9.374-24.569.001-33.942zM70.627 54.061 48 76.688 25.373 54.061 14.061 42.749c-6.248-6.248-6.248-16.379 0-22.629 6.25-6.248 16.379-6.248 22.627 0L48 31.434 59.314 20.12c6.248-6.248 16.379-6.248 22.627 0 6.248 6.25 6.248 16.379 0 22.629L70.627 54.061z"></path>
    </g>
  </switch>
</svg>
